<?xml version="1.0" encoding="UTF-8"?>
<svg version="1.1" xmlns="http://www.w3.org/2000/svg" width="74" height="65">
<path d="M0 0 C4.18892171 3.49076809 6.93210219 5.89305694 10.125 10 C13.59015685 14.34019646 17.19978774 18.45124306 21 22.5 C25.43886768 27.23813282 29.59146266 32.12124331 33.65625 37.1875 C36.33209459 40.39851351 39.14375471 43.45011096 42 46.5 C57 62.53250478 57 62.53250478 57 65 C44.21180056 66.51638729 44.21180056 66.51638729 39.31640625 63.16015625 C37.00442028 60.55144481 34.9980902 57.85550822 33 55 C31.51189364 53.17772239 30.01176988 51.36519467 28.5 49.5625 C27 47.70833333 25.5 45.85416667 24 44 C19.545 38.555 19.545 38.555 15 33 C14.67 43.56 14.34 54.12 14 65 C9.38 65 4.76 65 0 65 C0 43.55 0 22.1 0 0 Z " fill="#572674" transform="translate(0,0)"/>
<path d="M0 0 C4.12582397 -0.09969463 8.25117097 -0.17185233 12.37792969 -0.21972656 C13.77844473 -0.2397063 15.17887782 -0.2669002 16.57910156 -0.30175781 C25.86329946 -0.52690954 32.50044892 -0.28902371 40.05859375 5.60546875 C43.38627879 9.42335102 44.93321271 12.56419846 45.16796875 17.66796875 C44.65904533 24.7337195 41.95941935 30.04058065 37 35 C36.34 35 35.68 35 35 35 C38.89579561 42.47485988 43.18188642 49.60982295 47.74755859 56.69140625 C51 61.78976063 51 61.78976063 51 64 C46.71 64 42.42 64 38 64 C37.02160156 62.09734375 36.04320312 60.1946875 35.03515625 58.234375 C34.05839679 56.38078511 33.07253605 54.53231932 32.08569336 52.68408203 C31.41002898 51.40691352 30.74378855 50.12470936 30.08764648 48.83740234 C25.83186711 39.99249189 25.83186711 39.99249189 18.18359375 34.328125 C17.09195923 34.00956543 17.09195923 34.00956543 15.97827148 33.68457031 C13.61751251 32.86764224 12.52323815 31.96911473 11 30 C10.8125 26.8125 10.8125 26.8125 11 24 C12.19238281 23.96261719 13.38476562 23.92523437 14.61328125 23.88671875 C16.179719 23.82105968 17.74612384 23.75461232 19.3125 23.6875 C20.09818359 23.66494141 20.88386719 23.64238281 21.69335938 23.61914062 C22.8293457 23.5659668 22.8293457 23.5659668 23.98828125 23.51171875 C24.68477783 23.48553467 25.38127441 23.45935059 26.09887695 23.43237305 C28.54519686 22.8760057 29.49466066 21.98049084 31 20 C30.75546876 16.65807308 30.39456443 15.39456443 28 13 C25.44186566 12.82145744 22.93504543 12.72993648 20.375 12.6875 C13.72742065 12.43108492 9.09957267 11.57619548 4 7 C3.175 6.29875 2.35 5.5975 1.5 4.875 C0 3 0 3 0 0 Z " fill="#8F45BB" transform="translate(23,1)"/>
</svg>
